<?xml version="1.0" standalone="no"?>
<svg viewBox="0 0 200 200" xmlns="http://www.w3.org/2000/svg">
  <path fill="#BAE6FF" d="M38.5,-56.6C53.4,-50.3,71.3,-45.6,79,-34.4C86.6,-23.3,83.9,-5.8,80.4,10.8C76.8,27.4,72.4,43.2,63.4,56.7C54.4,70.2,40.8,81.6,26.2,83.1C11.6,84.5,-4.2,76.1,-20.3,70.6C-36.4,65.2,-52.9,62.6,-62.6,53.2C-72.4,43.8,-75.4,27.6,-74.4,12.7C-73.5,-2.2,-68.5,-15.6,-63.1,-29.3C-57.6,-42.9,-51.5,-56.8,-40.9,-65C-30.3,-73.2,-15.1,-75.7,-1.7,-73.1C11.8,-70.5,23.6,-62.8,38.5,-56.6Z" transform="translate(100 100)" />
</svg>
